# xmcd
#
# Track frame offsets: 
#        150
#        15800
#        24720
#        38115
#        47965
#        60345
#        74077
#        83515
#        96802
#        111125
#        125190
#        138160
#        149372
#        159482
#        171642
#        183130
#        195125
#        209010
#        223745
#        236320
#        248492
#        262277
#        278515
#        292977
#        303877
#        314682
#        327147
#        338625
#        349477
#
# Disc length: 4799 seconds
#
# Revision: 1
# Processed by: cddbd v1.5.2PL0 Copyright (c) Steve Scherf et al.
# Submitted via: ExactAudioCopyFreeDBPlugin 1.0
#
DISCID=ac12bd1d
DTITLE=Various Artist - A Shot in the Dark:  Nashville Jumps - Blues 
DTITLE=and Rhythm on Nashville Independent Labels, 1945-1955
DYEAR=2000
DGENRE=Rhythm and Blues
TTITLE0=Christine Kittrell - Sittin' Here Drinking
TTITLE1=Christine Kittrell - I Ain't Nothing But a Fool
TTITLE2=Christine Kittrell - Heartache Blues
TTITLE3=Christine Kittrell - You Ain't Nothin' But Trouble
TTITLE4=Gay Crosse - No Better for You
TTITLE5=Gay Crosse - Tired of Being Around
TTITLE6=Helen Foster - Oop-De-Doo
TTITLE7=Helen Foster - You Belong to Me
TTITLE8=Christine Kittrell - Slave to Love
TTITLE9=Christine Kittrell - Gotta Stop Loving You
TTITLE10=Gay Crosse - Easy Rockin'
TTITLE11=Gay Crosse - G. C. Rock
TTITLE12=Helen Foster - Somebody Somewhere
TTITLE13=Christine Kittrell - I'll Help You Baby
TTITLE14=Christine Kittrell - L and N Special
TTITLE15=Christine Kittrell - Every Night in the Week
TTITLE16=Christine Kittrell - Evil Eyed Woman
TTITLE17=Christine Kittrell - Price You Pay for Love
TTITLE18=Christine Kittrell - Snake in the Grass
TTITLE19=Robert Gill - I Only Had a Little
TTITLE20=Christine Kittrell - Lord Have Mercy
TTITLE21=Christine Kittrell - Sittin' Here Drinkin' Again
TTITLE22=Christine Kittrell - Leave My Man Alone
TTITLE23=Christine Kittrell - Call His Name
TTITLE24=Bernard Hardison - Too Much
TTITLE25=Bernard Hardison - Come to Me Baby
TTITLE26=Christine Kittrell - If You Ain't Sure
TTITLE27=Christine Kittrell - Black Cat Crossed My Trail
TTITLE28=Jimmy Sweeney - Deep Blues
EXTD=
EXTT0=
EXTT1=
EXTT2=
EXTT3=
EXTT4=
EXTT5=
EXTT6=
EXTT7=
EXTT8=
EXTT9=
EXTT10=
EXTT11=
EXTT12=
EXTT13=
EXTT14=
EXTT15=
EXTT16=
EXTT17=
EXTT18=
EXTT19=
EXTT20=
EXTT21=
EXTT22=
EXTT23=
EXTT24=
EXTT25=
EXTT26=
EXTT27=
EXTT28=
PLAYORDER=
